<svg width="27" height="27" viewBox="0 0 27 27" fill="none" xmlns="http://www.w3.org/2000/svg">
<path d="M19.5088 15.0613C19.5087 15.4837 19.5919 15.9019 19.7535 16.2921C19.9151 16.6824 20.152 17.037 20.4507 17.3356C20.7493 17.6343 21.1039 17.8712 21.4941 18.0329C21.8843 18.1945 22.3025 18.2777 22.7249 18.2777C23.1473 18.2777 23.5655 18.1945 23.9558 18.0329C24.346 17.8712 24.7005 17.6343 24.9992 17.3356C25.2978 17.037 25.5347 16.6824 25.6963 16.2921C25.8579 15.9019 25.9411 15.4837 25.9411 15.0613C25.9411 14.6389 25.8579 14.2207 25.6963 13.8304C25.5347 13.4402 25.2978 13.0856 24.9992 12.7869C24.7005 12.4883 24.346 12.2513 23.9558 12.0897C23.5655 11.928 23.1473 11.8448 22.7249 11.8448C22.3025 11.8448 21.8843 11.928 21.4941 12.0897C21.1039 12.2513 20.7493 12.4883 20.4507 12.7869C20.152 13.0856 19.9151 13.4402 19.7535 13.8304C19.5919 14.2207 19.5087 14.6389 19.5088 15.0613Z" fill="#FAE1DC"/>
<path d="M1.47437e-08 15.0613C-4.04269e-05 15.4837 0.0831174 15.9019 0.244725 16.2921C0.406333 16.6824 0.643225 17.037 0.941874 17.3356C1.24052 17.6343 1.59508 17.8712 1.9853 18.0329C2.37552 18.1945 2.79376 18.2777 3.21613 18.2777C3.63851 18.2777 4.05674 18.1945 4.44696 18.0329C4.83718 17.8712 5.19174 17.6343 5.49039 17.3356C5.78904 17.037 6.02593 16.6824 6.18754 16.2921C6.34915 15.9019 6.4323 15.4837 6.43226 15.0613C6.4323 14.6389 6.34915 14.2207 6.18754 13.8304C6.02593 13.4402 5.78904 13.0856 5.49039 12.7869C5.19174 12.4883 4.83718 12.2513 4.44696 12.0897C4.05674 11.928 3.63851 11.8448 3.21613 11.8448C2.79376 11.8448 2.37552 11.928 1.9853 12.0897C1.59508 12.2513 1.24052 12.4883 0.941874 12.7869C0.643225 13.0856 0.406333 13.4402 0.244725 13.8304C0.0831174 14.2207 -4.04269e-05 14.6389 1.47437e-08 15.0613Z" fill="#FAE1DC"/>
<path d="M3.52588 21.6153C3.52588 22.1673 3.74516 22.6967 4.13549 23.087C4.52581 23.4773 5.05521 23.6966 5.60721 23.6966C6.15922 23.6966 6.68861 23.4773 7.07894 23.087C7.46926 22.6967 7.68854 22.1673 7.68854 21.6153C7.68854 21.3419 7.63471 21.0713 7.53011 20.8188C7.42552 20.5663 7.27221 20.3368 7.07894 20.1435C6.88567 19.9503 6.65622 19.797 6.4037 19.6924C6.15118 19.5878 5.88054 19.5339 5.60721 19.5339C5.33389 19.5339 5.06324 19.5878 4.81072 19.6924C4.5582 19.797 4.32876 19.9503 4.13549 20.1435C3.94222 20.3368 3.78891 20.5663 3.68431 20.8188C3.57971 21.0713 3.52588 21.3419 3.52588 21.6153Z" fill="#EB6A3C"/>
<path d="M4.04848 24.9801L4.80051 26.557L6.17558 25.3567L4.28667 24.4767L4.04848 24.9801ZM2.31872 23.4355L0.827148 22.5264L2.1627 21.2814L2.84503 23.2504L2.31872 23.4355Z" fill="#A3B15C"/>
<path d="M1.03008 26.6989C1.13772 26.7953 1.2844 26.8461 1.46173 26.8482C1.63906 26.8503 1.84358 26.8039 2.0636 26.7114C2.28362 26.6189 2.51484 26.4823 2.74406 26.3093C2.97328 26.1363 3.196 25.9303 3.39952 25.7031C3.60303 25.476 3.78336 25.232 3.93019 24.9852C4.07702 24.7384 4.18748 24.4936 4.25528 24.2648C4.32307 24.0359 4.34686 23.8276 4.32529 23.6515C4.30373 23.4755 4.23723 23.3353 4.12958 23.2389C4.02194 23.1424 3.87527 23.0917 3.69793 23.0895C3.5206 23.0874 3.31609 23.1339 3.09607 23.2264C2.87604 23.3188 2.64482 23.4554 2.41561 23.6284C2.18639 23.8014 1.96366 24.0074 1.76015 24.2346C1.55663 24.4618 1.37631 24.7057 1.22948 24.9525C1.08265 25.1993 0.97218 25.4441 0.904388 25.673C0.836595 25.9018 0.812803 26.1102 0.834369 26.2862C0.855936 26.4622 0.922439 26.6025 1.03008 26.6989Z" fill="#EB6A3C"/>
<path d="M2.19238 23.9785C2.19238 24.1439 2.22496 24.3077 2.28827 24.4605C2.35157 24.6133 2.44435 24.7522 2.56132 24.8692C2.67828 24.9861 2.81714 25.0789 2.96997 25.1422C3.12279 25.2055 3.28658 25.2381 3.452 25.2381C3.61742 25.2381 3.78121 25.2055 3.93403 25.1422C4.08686 25.0789 4.22572 24.9861 4.34268 24.8692C4.45965 24.7522 4.55243 24.6133 4.61573 24.4605C4.67904 24.3077 4.71162 24.1439 4.71162 23.9785C4.71162 23.8131 4.67904 23.6493 4.61573 23.4965C4.55243 23.3436 4.45965 23.2048 4.34268 23.0878C4.22572 22.9708 4.08686 22.8781 3.93403 22.8148C3.78121 22.7515 3.61742 22.7189 3.452 22.7189C3.28658 22.7189 3.12279 22.7515 2.96997 22.8148C2.81714 22.8781 2.67828 22.9708 2.56132 23.0878C2.44435 23.2048 2.35157 23.3436 2.28827 23.4965C2.22496 23.6493 2.19238 23.8131 2.19238 23.9785Z" fill="#6D743E"/>
<path d="M19.0264 21.506C19.0264 22.0851 19.2564 22.6404 19.6658 23.0498C20.0753 23.4593 20.6306 23.6893 21.2096 23.6893C21.7887 23.6893 22.344 23.4593 22.7534 23.0498C23.1629 22.6404 23.3929 22.0851 23.3929 21.506C23.3929 20.927 23.1629 20.3717 22.7534 19.9622C22.344 19.5528 21.7887 19.3228 21.2096 19.3228C20.6306 19.3228 20.0753 19.5528 19.6658 19.9622C19.2564 20.3717 19.0264 20.927 19.0264 21.506Z" fill="#EB6A3C"/>
<path d="M22.8449 25.0363L22.0565 26.6912L20.6138 25.4305L22.5952 24.5079L22.8449 25.0363ZM24.6599 23.4158L26.2254 22.4619L24.8243 21.1555L24.1087 23.2212L24.6599 23.4158Z" fill="#A3B15C"/>
<path d="M26.0139 26.8433C26.242 26.639 26.2894 26.2518 26.1457 25.7669C26.0021 25.282 25.6791 24.7392 25.2478 24.2577C24.8165 23.7763 24.3123 23.3957 23.8461 23.1998C23.3799 23.0038 22.9898 23.0085 22.7617 23.2129C22.5337 23.4172 22.4862 23.8044 22.6299 24.2893C22.7736 24.7742 23.0966 25.317 23.5279 25.7985C23.9591 26.2799 24.4633 26.6604 24.9296 26.8564C25.3958 27.0523 25.7858 27.0476 26.0139 26.8433Z" fill="#EB6A3C"/>
<path d="M22.1499 23.9848C22.1499 24.3352 22.2891 24.6711 22.5368 24.9189C22.7845 25.1666 23.1205 25.3058 23.4709 25.3058C23.8212 25.3058 24.1572 25.1666 24.405 24.9189C24.6527 24.6711 24.7919 24.3352 24.7919 23.9848C24.7919 23.6345 24.6527 23.2985 24.405 23.0507C24.1572 22.803 23.8212 22.6638 23.4709 22.6638C23.1205 22.6638 22.7845 22.803 22.5368 23.0507C22.2891 23.2985 22.1499 23.6345 22.1499 23.9848Z" fill="#6D743E"/>
<path d="M2.47119 14.1386C2.47119 16.9982 3.60717 19.7407 5.62921 21.7627C7.65126 23.7848 10.3937 24.9208 13.2533 24.9208C16.113 24.9208 18.8554 23.7848 20.8775 21.7627C22.8995 19.7407 24.0355 16.9982 24.0355 14.1386C24.0355 11.279 22.8995 8.53651 20.8775 6.51447C18.8554 4.49242 16.113 3.35645 13.2533 3.35645C10.3937 3.35645 7.65126 4.49242 5.62921 6.51447C3.60717 8.53651 2.47119 11.279 2.47119 14.1386Z" fill="#FAE1DC"/>
<path d="M16.7805 0H9.7252C5.07158 0 1.26465 4.17203 1.26465 9.27186V10.3963C1.26465 10.7187 1.28025 11.037 1.30937 11.3511H13.6809C14.9852 11.0099 17.1986 10.0853 17.9933 7.6638C18.3158 9.57351 18.6985 10.7385 20.5146 11.3511H25.1963C25.2265 11.037 25.2411 10.7187 25.2411 10.3963V9.27186C25.2421 4.17203 21.4341 0 16.7805 0Z" fill="#EB6A3C"/>
<path d="M13.5477 22.674C11.9771 22.674 11.585 20.8954 11.585 20.8954H15.5115C15.5115 20.8954 15.1183 22.674 13.5477 22.674Z" fill="#E15B48"/>
</svg>
