<svg width="31" height="31" viewBox="0 0 31 31" fill="none" xmlns="http://www.w3.org/2000/svg">
<path d="M15.5 31C24.0604 31 31 24.0604 31 15.5C31 6.93959 24.0604 0 15.5 0C6.93959 0 0 6.93959 0 15.5C0 24.0604 6.93959 31 15.5 31Z" fill="#E0E0D1"/>
<g opacity="0.2">
<path d="M15.597 5.8125C11.4798 5.8125 6.8782 8.42813 5.37664 13.4172C4.60164 15.9359 7.89539 14.9188 8.08914 17.8734C8.28289 20.2469 7.55633 21.0703 7.41101 22.5234C7.21726 24.4609 11.722 27.3672 15.7423 27.1734C21.7001 26.8344 26.2532 22.4266 26.2532 16.4688C26.2532 10.5109 21.5548 5.8125 15.597 5.8125ZM11.722 23.25C10.6563 23.25 9.78445 22.3781 9.78445 21.3125C9.78445 20.2469 10.6563 19.375 11.722 19.375C12.7876 19.375 13.6595 20.2469 13.6595 21.3125C13.6595 22.3781 12.7876 23.25 11.722 23.25Z" fill="#231F20"/>
</g>
<path d="M15.597 4.84375C11.4798 4.84375 6.8782 7.45938 5.37664 12.4484C4.60164 14.9672 7.89539 13.95 8.08914 16.9047C8.28289 19.2781 7.55633 20.1016 7.41101 21.5547C7.21726 23.4922 11.722 26.3984 15.7423 26.2047C21.7001 25.8656 26.2532 21.4578 26.2532 15.5C26.2532 9.54219 21.5548 4.84375 15.597 4.84375ZM11.722 22.2812C10.6563 22.2812 9.78445 21.4094 9.78445 20.3438C9.78445 19.2781 10.6563 18.4062 11.722 18.4062C12.7876 18.4062 13.6595 19.2781 13.6595 20.3438C13.6595 21.4094 12.7876 22.2812 11.722 22.2812Z" fill="#E0995E"/>
<g opacity="0.2">
<path d="M10.1235 14.0469C11.1936 14.0469 12.061 13.1794 12.061 12.1094C12.061 11.0393 11.1936 10.1719 10.1235 10.1719C9.05348 10.1719 8.18604 11.0393 8.18604 12.1094C8.18604 13.1794 9.05348 14.0469 10.1235 14.0469Z" fill="#231F20"/>
</g>
<g opacity="0.2">
<path d="M15.5967 11.4313C16.6667 11.4313 17.5342 10.5638 17.5342 9.49377C17.5342 8.42372 16.6667 7.55627 15.5967 7.55627C14.5266 7.55627 13.6592 8.42372 13.6592 9.49377C13.6592 10.5638 14.5266 11.4313 15.5967 11.4313Z" fill="#231F20"/>
</g>
<g opacity="0.2">
<path d="M21.022 13.9016C22.092 13.9016 22.9595 13.0342 22.9595 11.9641C22.9595 10.8941 22.092 10.0266 21.022 10.0266C19.9519 10.0266 19.0845 10.8941 19.0845 11.9641C19.0845 13.0342 19.9519 13.9016 21.022 13.9016Z" fill="#231F20"/>
</g>
<g opacity="0.2">
<path d="M22.4751 20.0046C23.5451 20.0046 24.4126 19.1372 24.4126 18.0671C24.4126 16.9971 23.5451 16.1296 22.4751 16.1296C21.405 16.1296 20.5376 16.9971 20.5376 18.0671C20.5376 19.1372 21.405 20.0046 22.4751 20.0046Z" fill="#231F20"/>
</g>
<g opacity="0.2">
<path d="M18.0674 24.7516C19.1374 24.7516 20.0049 23.8841 20.0049 22.8141C20.0049 21.744 19.1374 20.8766 18.0674 20.8766C16.9973 20.8766 16.1299 21.744 16.1299 22.8141C16.1299 23.8841 16.9973 24.7516 18.0674 24.7516Z" fill="#231F20"/>
</g>
<path d="M10.1235 13.0781C11.1936 13.0781 12.061 12.2107 12.061 11.1406C12.061 10.0706 11.1936 9.20312 10.1235 9.20312C9.05348 9.20312 8.18604 10.0706 8.18604 11.1406C8.18604 12.2107 9.05348 13.0781 10.1235 13.0781Z" fill="#C75C5C"/>
<path d="M15.5967 10.4625C16.6667 10.4625 17.5342 9.59508 17.5342 8.52502C17.5342 7.45497 16.6667 6.58752 15.5967 6.58752C14.5266 6.58752 13.6592 7.45497 13.6592 8.52502C13.6592 9.59508 14.5266 10.4625 15.5967 10.4625Z" fill="#F5CF87"/>
<path d="M21.022 12.9329C22.092 12.9329 22.9595 12.0654 22.9595 10.9954C22.9595 9.92531 22.092 9.05786 21.022 9.05786C19.9519 9.05786 19.0845 9.92531 19.0845 10.9954C19.0845 12.0654 19.9519 12.9329 21.022 12.9329Z" fill="#76C2AF"/>
<path d="M22.4751 19.0359C23.5451 19.0359 24.4126 18.1684 24.4126 17.0984C24.4126 16.0283 23.5451 15.1609 22.4751 15.1609C21.405 15.1609 20.5376 16.0283 20.5376 17.0984C20.5376 18.1684 21.405 19.0359 22.4751 19.0359Z" fill="white"/>
<path d="M18.0674 23.7828C19.1374 23.7828 20.0049 22.9154 20.0049 21.8453C20.0049 20.7753 19.1374 19.9078 18.0674 19.9078C16.9973 19.9078 16.1299 20.7753 16.1299 21.8453C16.1299 22.9154 16.9973 23.7828 18.0674 23.7828Z" fill="#4F5D73"/>
</svg>
