<svg width="36" height="28" viewBox="0 0 36 28" fill="none" xmlns="http://www.w3.org/2000/svg">
<path fill-rule="evenodd" clip-rule="evenodd" d="M30.6302 8.83696C31.2714 6.51613 31.9362 2.75783 30.0119 1.46006C27.7816 -0.044142 23.5799 2.53362 22.0615 3.56921C20.6507 3.23022 19.152 3.04775 17.5988 3.04775C15.7828 3.04775 14.0413 3.29722 12.4276 3.75463C10.8343 2.73777 7.07868 0.657859 4.94869 2.09442C2.96846 3.42995 3.5918 7.20563 4.16283 9.40254C3.06453 11.0412 2.44336 12.9057 2.44336 14.8834C2.44336 21.42 9.22871 26.7193 17.5988 26.7193C25.969 26.7193 32.7543 21.42 32.7543 14.8834C32.7543 12.6744 31.9792 10.6066 30.6302 8.83696Z" fill="#F9F9F9"/>
<path d="M30.9038 8.78449C32.2362 10.5708 33.0043 12.6549 33.0043 14.8834C33.0043 21.6121 26.046 26.9693 17.5988 26.9693C9.1517 26.9693 2.19336 21.6121 2.19336 14.8834C2.19336 12.8894 2.80836 11.0104 3.893 9.35709C3.61389 8.26092 3.32893 6.7946 3.34906 5.4218C3.36967 4.01631 3.71221 2.6268 4.8089 1.88716L30.9038 8.78449ZM30.9038 8.78449C31.216 7.63154 31.5274 6.14267 31.5331 4.76591C31.539 3.35614 31.2238 1.97587 30.1517 1.25279C29.5341 0.836309 28.7929 0.711353 28.0264 0.759899C27.2606 0.808405 26.4526 1.03089 25.6798 1.32896C24.1938 1.90208 22.7975 2.77076 22.0121 3.30058L30.9038 8.78449Z" stroke="#390B0B" stroke-opacity="0.3" stroke-width="0.5"/>
<path d="M10.5263 19.2135C11.164 19.2135 11.681 18.5673 11.681 17.7702C11.681 16.973 11.164 16.3268 10.5263 16.3268C9.88856 16.3268 9.37158 16.973 9.37158 17.7702C9.37158 18.5673 9.88856 19.2135 10.5263 19.2135Z" fill="#390B0B"/>
<path d="M24.6713 19.2135C25.309 19.2135 25.826 18.5673 25.826 17.7702C25.826 16.973 25.309 16.3268 24.6713 16.3268C24.0336 16.3268 23.5166 16.973 23.5166 17.7702C23.5166 18.5673 24.0336 19.2135 24.6713 19.2135Z" fill="#390B0B"/>
<path d="M17.5989 21.5231C18.4758 21.5231 19.1867 21.0062 19.1867 20.3684C19.1867 19.7307 18.4758 19.2137 17.5989 19.2137C16.7221 19.2137 16.0112 19.7307 16.0112 20.3684C16.0112 21.0062 16.7221 21.5231 17.5989 21.5231Z" fill="#FFCE05"/>
<path d="M29.29 16.3358C31.5149 16.0329 32.777 15.9559 35.0636 16.0472" stroke="#390B0B" stroke-width="0.5" stroke-linecap="round" stroke-linejoin="round"/>
<path d="M29.0986 21.6398C31.0201 22.151 32.072 22.5277 33.8852 23.4221" stroke="#390B0B" stroke-width="0.5" stroke-linecap="round" stroke-linejoin="round"/>
<path d="M30.0117 19.0783C32.0203 18.9533 33.0012 19.147 35.007 19.4129" stroke="#390B0B" stroke-width="0.5" stroke-linecap="round" stroke-linejoin="round"/>
<path d="M6.77351 16.3358C4.54875 16.0329 3.28669 15.9559 1 16.0472" stroke="#390B0B" stroke-width="0.5" stroke-linecap="round" stroke-linejoin="round"/>
<path d="M6.96513 21.6398C5.04379 22.151 3.99191 22.5277 2.17871 23.4221" stroke="#390B0B" stroke-width="0.5" stroke-linecap="round" stroke-linejoin="round"/>
<path d="M6.05191 19.0783C4.04325 18.9533 3.06247 19.147 1.05664 19.4129" stroke="#390B0B" stroke-width="0.5" stroke-linecap="round" stroke-linejoin="round"/>
<path d="M23.4599 8.59601C22.4168 10.8331 19.2381 11.1695 17.0687 10.1579C14.8994 9.14628 14.9257 7.47049 15.9689 5.23337C17.0121 2.99622 18.4286 1.57787 20.598 2.58945C22.7674 3.60102 24.5032 6.35886 23.4599 8.59601Z" fill="#FF78D1"/>
<path d="M23.4598 8.59599C22.4167 10.8331 24.2023 13.4843 26.3717 14.4959C28.5411 15.5075 29.9368 14.11 30.9801 11.8729C32.0231 9.63574 32.0701 7.93911 29.901 6.9275C27.7316 5.91592 24.5031 6.35884 23.4598 8.59599Z" fill="#FF78D1"/>
<path d="M19.3814 6.57986C19.7369 5.8175 20.6727 5.5204 21.4219 5.9257C23.1308 6.85009 24.6637 7.55729 26.7173 8.37644C27.5045 8.69043 27.872 9.59676 27.5166 10.3587C27.1471 11.151 26.1596 11.4404 25.3932 10.9894C23.6432 9.95953 22.145 9.2636 20.2564 8.59517C19.4248 8.30083 19.0149 7.36581 19.3814 6.57986Z" fill="#FF78D1" stroke="white" stroke-width="0.5"/>
<path d="M22.5787 10.4861C23.652 10.9865 24.9277 10.5222 25.4282 9.44893C25.9287 8.37566 25.4643 7.09989 24.3911 6.59942C23.3178 6.09895 22.042 6.56329 21.5416 7.63656C21.0411 8.70982 21.5054 9.98559 22.5787 10.4861Z" fill="#FF78D1" stroke="white" stroke-width="0.5"/>
</svg>
