<svg width="24" height="24" viewBox="0 0 24 24" fill="none" xmlns="http://www.w3.org/2000/svg">
<path d="M3.57828 0.589049L11.9995 9.01026L20.3771 0.632682C20.5621 0.435716 20.785 0.27815 21.0325 0.169433C21.2799 0.0607153 21.5467 0.00308562 21.817 0C22.3956 0 22.9505 0.229853 23.3596 0.638994C23.7688 1.04813 23.9986 1.60305 23.9986 2.18166C24.0037 2.44914 23.9541 2.71483 23.8528 2.96244C23.7515 3.21004 23.6007 3.43434 23.4096 3.62156L14.9229 11.9991L23.4096 20.4858C23.7692 20.8376 23.98 21.3139 23.9986 21.8166C23.9986 22.3952 23.7688 22.9501 23.3596 23.3593C22.9505 23.7684 22.3956 23.9983 21.817 23.9983C21.5389 24.0098 21.2615 23.9634 21.0024 23.862C20.7432 23.7606 20.508 23.6064 20.3116 23.4092L11.9995 14.988L3.6001 23.3874C3.41576 23.5778 3.19554 23.7298 2.95215 23.8347C2.70876 23.9395 2.44701 23.9951 2.18202 23.9983C1.6034 23.9983 1.04849 23.7684 0.639349 23.3593C0.230208 22.9501 0.000354971 22.3952 0.000354971 21.8166C-0.00473156 21.5491 0.0448945 21.2834 0.146188 21.0358C0.247481 20.7882 0.398306 20.5639 0.589404 20.3767L9.07607 11.9991L0.589404 3.51247C0.229833 3.1607 0.0189855 2.68434 0.000354971 2.18166C0.000354971 1.60305 0.230208 1.04813 0.639349 0.638994C1.04849 0.229853 1.6034 0 2.18202 0C2.70562 0.00654498 3.2074 0.218166 3.57828 0.589049Z" fill="black"/>
</svg>
