<svg width="33" height="35" viewBox="0 0 33 35" fill="none" xmlns="http://www.w3.org/2000/svg">
<path d="M12.912 5.60198C12.912 5.60198 9.71523 4.87122 7.11823 5.963C4.68428 6.98782 4.33782 8.94139 4.55617 10.0623C4.77453 11.1832 5.4791 12.1643 6.89114 12.2546C7.85482 12.3157 8.1809 11.7626 8.04698 11.5297C7.9771 11.4103 6.95519 10.7639 7.42393 9.95748C7.81697 9.28494 9.14167 9.90507 9.52016 10.4903C9.87535 11.0376 10.3412 11.8295 10.3412 11.8295C10.3412 11.8295 14.359 10.1089 14.2745 9.99824C14.1901 9.88761 12.912 5.60198 12.912 5.60198Z" fill="#E74B8C"/>
<path d="M12.7199 7.8438L11.4622 6.7229L9.40088 9.22382L10.5742 11.0522L13.5671 9.74205L12.7199 7.8438Z" fill="#FCD817"/>
<path d="M6.43683 8.93565C6.27961 9.39857 6.41936 10.141 5.83708 10.205C5.23732 10.272 4.80352 9.54705 5.16745 8.3883C5.48188 7.38968 6.72215 6.79575 7.20254 7.61095C7.55482 8.21071 6.72215 8.08843 6.43683 8.93565Z" fill="#EF7FAD"/>
<path d="M9.34556 4.49573C9.26404 4.63256 7.84326 6.72297 7.84326 6.72297L9.20872 8.8949L10.8479 8.06223L11.1885 6.40854L9.34556 4.49573Z" fill="#BBD047"/>
<path d="M7.7881 2.89734L6.54492 4.4666L7.7619 6.58612L8.89444 6.02421L9.41559 4.53647L7.7881 2.89734Z" fill="#62A5A8"/>
<path d="M6.09325 1.18835L5.23438 2.0909L6.50376 4.37346L7.2287 3.84067L7.73238 2.82749L6.09325 1.18835Z" fill="#38B2E8"/>
<path d="M4.4544 0.0557625C4.16035 0.349817 5.23176 2.0792 5.23176 2.0792C5.23176 2.0792 6.02366 1.17666 6.02366 1.12426C6.02658 1.06603 4.79504 -0.287786 4.4544 0.0557625Z" fill="#A37BCB"/>
<path d="M11.1916 6.29791C11.5875 6.18727 11.8612 6.92677 11.506 7.67792C11.1887 8.34755 10.7287 8.86579 10.1114 9.20933C9.80575 9.3782 9.34574 9.56453 9.16814 9.23554C8.97599 8.88325 9.19435 8.70275 9.57866 8.42907C9.93094 8.17578 10.289 7.8002 10.4928 7.44501C10.6966 7.08981 10.8946 6.37943 11.1916 6.29791Z" fill="#A364B2"/>
<path d="M9.30479 4.31815C9.62504 4.22499 9.86378 4.8655 9.57555 5.50893C9.31934 6.08248 9.002 6.53957 8.50705 6.83363C8.26249 6.9792 7.88983 7.13933 7.74717 6.85692C7.59287 6.55413 7.73844 6.34159 8.04705 6.10577C8.33237 5.89032 8.57984 5.49437 8.74288 5.19158C8.90883 4.88879 9.06605 4.38803 9.30479 4.31815Z" fill="#A364B2"/>
<path d="M7.67123 2.57127C7.93617 2.64406 8.1225 3.1128 7.88376 3.59318C7.67123 4.02116 7.46451 4.24826 7.05109 4.46661C6.84438 4.57434 6.60564 4.71117 6.47463 4.54813C6.30868 4.34433 6.24754 4.05319 6.50665 3.8785C6.74539 3.71838 7.01324 3.52331 7.19084 3.18267C7.31021 2.94685 7.42667 2.50431 7.67123 2.57127Z" fill="#A364B2"/>
<path d="M5.91887 0.952435C6.09937 0.908764 6.32064 1.28725 6.16051 1.59004C6.01785 1.8608 5.83443 2.03257 5.55494 2.17232C5.4181 2.2422 5.26379 2.28296 5.18227 2.15194C5.09493 2.00928 5.01341 1.9103 5.1881 1.79966C5.34823 1.69776 5.57241 1.46776 5.66557 1.32219C5.75874 1.17953 5.78494 0.987372 5.91887 0.952435Z" fill="#A364B2"/>
<path d="M12.6762 33.2868C12.3821 33.0918 13.8407 28.0201 14.4143 26.6692C14.9878 25.3153 15.3285 24.1828 15.3285 24.1828C15.3285 24.1828 12.583 24.605 10.807 24.6195C9.45322 24.6312 7.48801 24.4565 7.48801 24.4565L3.55176 19.2916C3.55176 19.2916 4.6581 17.2827 5.31317 16.4646C5.96824 15.6436 7.93637 12.9796 8.92043 12.0392C9.90449 11.0959 11.2554 10.1119 11.8319 9.86731C12.4054 9.62275 12.7752 9.4568 12.7752 9.4568C12.7752 9.4568 12.4869 7.69539 12.6121 6.58904C12.7344 5.4827 14.3037 2.39368 14.5511 2.39368C14.8801 2.39368 16.3009 4.49864 16.5862 5.93106C16.8745 7.36348 19.9897 11.3813 19.9897 11.3813L29.0879 28.5965C29.0879 28.5965 29.2509 33.1879 29.2102 33.3509C29.1694 33.5139 24.1268 34.2127 21.0524 34.2127C17.9779 34.2127 12.9236 33.4528 12.6762 33.2868Z" fill="#DFDFDF"/>
<path d="M18.8747 18.5782C18.5719 18.5637 17.7073 20.296 16.8396 21.5712C16.1089 22.6426 15.2529 23.1579 14.3387 23.6354C13.3954 24.1274 11.995 24.4477 12.4725 24.5437C12.95 24.6398 15.8003 24.3225 16.7552 23.9207C17.2938 23.6965 18.045 22.5873 18.4293 21.8507C18.8136 21.1141 19.5036 18.6044 18.8747 18.5782Z" fill="#B0B0B0"/>
<path d="M13.698 15.2476C13.7591 16.1501 13.4302 16.9275 12.4898 16.9886C11.826 17.0323 11.3281 16.3598 11.2437 15.5387C11.1767 14.8982 11.4446 14.0714 12.3209 13.9491C13.1448 13.8326 13.6398 14.4237 13.698 15.2476Z" fill="#303030"/>
<path d="M16.5455 5.94265C16.5455 5.94265 19.0173 7.05481 19.9693 6.84519C20.7059 6.68215 20.9621 6.14936 20.9941 5.61657C21.0349 4.90036 20.4002 4.98188 20.2983 4.69365C20.1964 4.40541 20.9534 3.893 21.8355 4.05895C22.7177 4.22199 23.7687 5.03719 23.7483 6.34734C23.7279 7.65748 22.9215 8.36204 22.9215 8.36204C22.9215 8.36204 25.0468 8.26014 26.4676 9.71586C28.066 11.355 27.7166 14.0393 27.7166 14.0393C27.7166 14.0393 28.558 14.1616 28.8637 13.7307C29.1694 13.2998 29.0879 12.8078 28.8841 12.5225C28.6803 12.2342 29.2742 12.0508 29.6614 12.2139C30.0516 12.3769 31.8508 13.6667 30.8726 15.7483C30.267 17.041 28.7385 17.2361 28.7385 17.2361C28.7385 17.2361 31.3006 18.3686 32.2381 21.2247C33.2687 24.3691 32.142 26.4595 30.9745 28.4655C29.807 30.4743 29.9118 30.5937 29.8478 31.2517C29.7663 32.0727 29.5188 33.0975 29.2131 33.0742C28.9045 33.0539 28.5376 32.1921 28.3513 31.2517C28.1679 30.3084 27.0179 29.3855 26.0979 28.547C25.1778 27.7085 22.8662 25.4929 22.2024 23.4665C21.361 20.9045 21.7918 17.338 21.7918 17.338C21.7918 17.338 19.2502 16.1705 17.8352 13.8326C16.3038 11.3026 16.4406 9.44801 16.4406 9.44801C16.4406 9.44801 16.8308 8.34166 16.8512 7.58178C16.8715 6.8219 16.5455 5.94265 16.5455 5.94265Z" fill="#E74B8C"/>
<path d="M20.5428 7.70698C20.7204 8.46978 22.1208 8.07674 22.3887 6.78406C22.6565 5.49139 21.917 4.91784 21.4861 5.16531C21.0552 5.40987 21.588 6.06785 21.3027 6.62102C21.0174 7.17419 20.3972 7.08976 20.5428 7.70698Z" fill="#F081AF"/>
<path d="M27.6467 15.1486C27.4021 15.8939 28.6802 16.153 29.6818 15.3495C30.7095 14.5226 30.4184 13.2998 29.8244 13.361C29.0704 13.4396 29.3906 14.2926 28.8578 14.6158C28.325 14.9419 27.8447 14.5517 27.6467 15.1486Z" fill="#F081AF"/>
<path d="M18.9242 8.6678C17.9402 8.54552 17.8033 10.4642 18.4118 11.783C19.3755 13.8734 20.9739 13.4833 22.0802 14.8371C22.9362 15.8852 22.7353 17.2361 23.6175 17.2158C24.4996 17.1954 24.7238 15.7193 23.3729 13.9171C22.0191 12.1149 20.3188 12.1149 19.8064 11.029C19.2911 9.94009 20.0713 8.81337 18.9242 8.6678Z" fill="#F081AF"/>
<path d="M23.9229 17.9524C22.7962 18.5958 23.5997 20.0544 24.2111 20.1854C25.0729 20.3688 25.4601 19.7953 25.565 19.2217C25.6698 18.6482 25.07 17.2973 23.9229 17.9524Z" fill="#F081AF"/>
<path d="M24.7848 21.4168C23.8939 21.5624 23.9929 22.4562 24.1501 23.3646C24.418 24.9222 25.2361 26.4186 26.1998 27.2164C27.1314 27.9879 27.6555 27.7492 27.9204 27.4406C28.2349 27.0795 27.9408 26.4361 27.5711 26.0052C27.2013 25.5743 26.7238 25.0212 26.4036 24.5495C26.0134 23.976 25.9669 23.2306 25.8912 22.8085C25.7485 21.9904 25.6641 21.2712 24.7848 21.4168Z" fill="#F081AF"/>
<path d="M1.3391 25.5366C2.24164 27.2398 4.35242 26.806 4.35242 26.806C4.35242 26.806 6.34093 25.9035 6.34093 25.8423C6.34093 25.7812 7.65107 24.1217 7.65107 24.1217C7.65107 24.1217 7.3017 22.6252 5.9508 20.9861C4.8823 19.6934 3.75849 19.0587 3.75849 19.0587L1.29834 21.2714C1.29834 21.2714 0.0697124 23.1376 1.3391 25.5366Z" fill="white"/>
<path d="M2.95816 21.0472C2.8155 21.5799 3.28715 21.7837 3.45019 21.9701C3.61323 22.1535 3.22601 22.9338 3.77919 23.1376C4.33236 23.3414 4.96705 22.4214 4.76325 21.6207C4.54198 20.7647 3.17361 20.2494 2.95816 21.0472Z" fill="#90909B"/>
<path d="M4.00308 18.9916C3.86042 18.718 3.54599 18.8548 3.23737 19.143C2.92876 19.4313 1.18773 20.7006 0.695697 21.8623C0.33468 22.7154 0.0755633 24.3603 1.01304 25.6996C1.98546 27.0912 2.85889 27.2252 4.18941 27.1145C6.13716 26.9515 7.21438 25.3531 7.4211 25.0853C7.62781 24.8174 8.07617 24.238 7.83161 23.9527C7.58705 23.6645 7.35704 24.0808 7.0397 24.5117C6.62919 25.0649 6.30311 25.3997 5.8926 25.7694C5.65386 25.9849 4.96967 26.3575 4.68435 26.4187C4.39612 26.4798 5.25208 25.9878 5.5869 25.4142C5.81399 25.027 6.28273 24.1041 6.28273 24.1041L5.48208 23.8595C5.48208 23.8595 5.09195 24.7068 4.78625 25.0765C4.47764 25.4463 3.51687 26.2789 3.22864 26.3401C2.94041 26.4012 1.85445 25.9179 1.37115 25.0503C0.90532 24.2176 0.832535 23.0211 1.30419 22.0778C1.77584 21.1344 2.9637 20.1708 3.33345 19.8854C3.69738 19.5914 4.1865 19.341 4.00308 18.9916Z" fill="#AFAFAF"/>
<path d="M6.34098 23.3093C6.11971 23.1172 5.75287 23.254 5.56363 23.5131C5.37147 23.7722 5.30451 24.0721 5.68591 24.2788C6.0673 24.4826 6.31477 24.2643 6.49237 24.0197C6.66706 23.7722 6.54478 23.4869 6.34098 23.3093Z" fill="#90909B"/>
</svg>
