<svg width="57" height="51" viewBox="0 0 57 51" fill="none" xmlns="http://www.w3.org/2000/svg">
<g id="Frame" clip-path="url(#clip0_677_543)">
<g id="Group">
<path id="Vector" d="M43.683 2.65776C39.4282 1.00067 32.3422 4.88452 32.4059 9.75591C26.8776 10.027 21.2995 12.5794 16.9942 16.04C16.9219 16.1015 16.8908 16.1528 16.8699 16.2452C13.9837 11.9819 6.59501 14.2822 3.88539 17.6551C0.34823 22.1046 4.66538 28.9825 9.85044 29.625C9.85044 29.625 9.85044 29.625 9.89165 29.6148C9.88563 31.1872 10.137 32.7397 10.6768 34.2212C13.2213 41.7104 20.9034 46.1011 28.5624 45.785C36.7875 45.4603 45.0571 41.5903 48.607 33.8215C51.3158 27.9616 50.4988 20.9196 46.5654 15.9543C49.8236 11.7917 48.9654 4.75984 43.683 2.65776ZM44.0695 3.87158C48.6297 6.41339 47.7874 11.3334 46.002 15.2641C45.3358 14.5119 44.5974 13.8211 43.8381 13.2228C43.5199 12.9957 43.2017 12.7687 42.8834 12.5416C44.2359 11.4666 43.5866 9.00852 42.128 8.23337C40.2175 7.2205 38.1955 8.4168 37.3653 10.1922C35.9357 9.88985 34.4542 9.73124 32.9821 9.78847C33.2367 5.14414 40.3618 1.77424 44.0695 3.87158ZM42.1031 12.0357C40.7682 11.2301 39.3603 10.6606 37.9618 10.307C38.6664 9.0862 39.9871 8.23721 41.4673 8.74522C43.0603 9.35635 43.0543 10.9287 42.1031 12.0357ZM5.40948 17.4542C8.29139 14.7806 13.6068 13.6456 16.3524 16.9836C15.1452 17.761 14.1123 18.7136 13.2537 19.8415C11.8782 18.8713 9.54947 19.5323 8.71045 20.9171C7.7262 22.5996 8.68492 24.8942 10.4218 25.5571C10.0983 26.7277 9.95983 27.9399 9.91393 29.173C5.00922 27.8942 1.09201 21.3978 5.40948 17.4542ZM12.6848 20.5488C11.7431 21.8717 11.0169 23.3597 10.5684 24.9101C9.31521 24.2589 8.60107 22.6022 9.37794 21.3199C10.1237 20.089 11.5235 20.0932 12.6848 20.5488ZM48.5461 30.913C44.4039 45.5038 21.2994 50.1924 12.9928 36.8796C9.81133 31.7727 10.3705 25.5261 13.5996 20.8907C13.7644 20.8501 13.8989 20.6861 13.8583 20.5215C14.9757 19.0245 16.3599 17.7235 18.0312 16.7009C18.0724 16.6907 18.1035 16.6394 18.1346 16.5881C24.5139 11.7875 33.0787 8.76109 40.7527 12.5866C47.3687 15.8437 50.5698 23.8692 48.5461 30.913Z" fill="white"/>
<path id="Vector_2" d="M40.5371 33.8894C40.3946 33.4882 39.7359 33.4759 39.7238 33.9589C39.7387 35.4388 38.8584 36.8338 37.2425 36.8392C36.0177 36.8355 34.9293 36.1437 34.1503 35.2884C34.6874 34.807 35.0812 34.0991 35.1974 33.3287C35.2399 32.9691 34.8082 32.8137 34.5299 32.9259C33.3443 33.4361 32.2303 34.0597 31.1879 34.7965C30.9298 34.9909 30.9285 35.3403 31.1954 35.5364C31.9034 36.1038 32.7776 36.2811 33.622 36.1603C34.0619 36.881 34.3159 37.7347 34.0038 38.5971C33.4938 40.0754 31.4853 40.4393 30.8638 38.8034C30.7111 38.3611 29.9186 38.3381 29.9679 38.8932C30.1862 41.0212 32.9014 41.574 34.2761 40.0572C35.1652 39.0527 35.2212 37.8608 34.8239 36.7805C35.7373 37.4718 36.8473 37.8965 38.0525 37.6432C39.6286 37.2986 41.1689 35.5664 40.5371 33.8894ZM32.6276 35.1399C32.5039 35.1704 32.4316 35.2318 32.3695 35.3344C32.2769 35.3136 32.2256 35.2826 32.1641 35.2105C32.3188 35.1287 32.5046 34.9957 32.6593 34.9139C32.6694 34.9551 32.6796 34.9962 32.7309 35.0272C32.7411 35.0683 32.7924 35.0993 32.7924 35.0993C32.7512 35.1095 32.6688 35.1298 32.6276 35.1399ZM33.0822 34.6788C33.3916 34.5153 33.701 34.3518 34.0516 34.1782C33.8551 34.4448 33.6483 34.6703 33.3491 34.8749C33.2362 34.7718 33.1336 34.7098 33.0822 34.6788Z" fill="white"/>
<path id="Vector_3" d="M19.4785 36.4157C18.9124 36.4243 18.1281 36.9666 18.5064 37.6152C18.5679 37.6873 18.6193 37.7183 18.6706 37.7493C18.6598 37.8829 18.7415 38.0373 18.803 38.1094C19.2746 38.6041 20.0792 38.1441 20.2974 37.6103C20.6392 37.0461 20.1372 36.428 19.4785 36.4157ZM19.4739 37.6387C19.4326 37.6488 19.309 37.6793 19.309 37.6793L19.2989 37.6381C19.4739 37.6387 19.6394 37.4234 19.5063 37.238C19.5887 37.2177 19.6812 37.2385 19.6914 37.2796C19.7731 37.434 19.5975 37.6082 19.4739 37.6387Z" fill="white"/>
<path id="Vector_4" d="M44.3999 25.0835C44.0614 24.7742 43.5771 24.9372 43.165 25.0387C43.0001 25.0793 42.8968 25.192 42.8448 25.3357C42.7407 25.6232 42.7705 25.9213 42.9238 26.189C43.0772 26.4566 43.3643 26.735 43.694 26.6537C43.8588 26.6131 43.9311 26.5517 43.9933 26.4491C44.2507 26.4293 44.5189 26.276 44.6229 25.9885C44.7168 25.66 44.6256 25.2897 44.3999 25.0835Z" fill="white"/>
</g>
</g>
<defs>
<clipPath id="clip0_677_543">
<rect width="47.7048" height="39.9527" fill="white" transform="translate(0.138672 12.2072) rotate(-13.8402)"/>
</clipPath>
</defs>
</svg>
