<svg width="111" height="99" viewBox="0 0 111 99" fill="none" xmlns="http://www.w3.org/2000/svg">
<g id="Group 101">
<g id="Group 95">
<ellipse id="Ellipse 36" cx="3.94161" cy="95.1835" rx="3.45948" ry="3.70919" transform="rotate(-90 3.94161 95.1835)" fill="#FFCE05"/>
<ellipse id="Ellipse 198" cx="106.584" cy="95.1835" rx="3.45948" ry="3.70919" transform="rotate(-90 106.584 95.1835)" fill="#FFCE05"/>
<ellipse id="Ellipse 58" cx="38.1545" cy="95.1835" rx="3.45948" ry="3.70919" transform="rotate(-90 38.1545 95.1835)" fill="#FFCE05"/>
<ellipse id="Ellipse 74" cx="72.3713" cy="95.1835" rx="3.45948" ry="3.70919" transform="rotate(-90 72.3713 95.1835)" fill="#FFCE05"/>
<ellipse id="Ellipse 44" cx="21.049" cy="95.1835" rx="3.45948" ry="3.70919" transform="rotate(-90 21.049 95.1835)" fill="#FFCE05"/>
<ellipse id="Ellipse 59" cx="55.2619" cy="95.1835" rx="3.45948" ry="3.70919" transform="rotate(-90 55.2619 95.1835)" fill="#FFCE05"/>
<ellipse id="Ellipse 75" cx="89.4787" cy="95.1835" rx="3.45948" ry="3.70919" transform="rotate(-90 89.4787 95.1835)" fill="#FFCE05"/>
</g>
<g id="Group 96">
<ellipse id="Ellipse 36_2" cx="3.94161" cy="76.9351" rx="3.45948" ry="3.70919" transform="rotate(-90 3.94161 76.9351)" fill="#FFCE05"/>
<ellipse id="Ellipse 198_2" cx="106.584" cy="76.9351" rx="3.45948" ry="3.70919" transform="rotate(-90 106.584 76.9351)" fill="#FFCE05"/>
<ellipse id="Ellipse 58_2" cx="38.1545" cy="76.9351" rx="3.45948" ry="3.70919" transform="rotate(-90 38.1545 76.9351)" fill="#FFCE05"/>
<ellipse id="Ellipse 74_2" cx="72.3733" cy="76.9351" rx="3.45948" ry="3.70919" transform="rotate(-90 72.3733 76.9351)" fill="#FFCE05"/>
<ellipse id="Ellipse 44_2" cx="21.051" cy="76.9351" rx="3.45948" ry="3.70919" transform="rotate(-90 21.051 76.9351)" fill="#FFCE05"/>
<ellipse id="Ellipse 59_2" cx="55.2639" cy="76.9351" rx="3.45948" ry="3.70919" transform="rotate(-90 55.2639 76.9351)" fill="#FFCE05"/>
<ellipse id="Ellipse 75_2" cx="89.4807" cy="76.9351" rx="3.45948" ry="3.70919" transform="rotate(-90 89.4807 76.9351)" fill="#FFCE05"/>
</g>
<g id="Group 97">
<ellipse id="Ellipse 36_3" cx="3.94161" cy="58.6836" rx="3.45948" ry="3.70919" transform="rotate(-90 3.94161 58.6836)" fill="#FFCE05"/>
<ellipse id="Ellipse 198_3" cx="106.584" cy="58.6836" rx="3.45948" ry="3.70919" transform="rotate(-90 106.584 58.6836)" fill="#FFCE05"/>
<ellipse id="Ellipse 58_3" cx="38.1545" cy="58.6836" rx="3.45948" ry="3.70919" transform="rotate(-90 38.1545 58.6836)" fill="#FFCE05"/>
<ellipse id="Ellipse 74_3" cx="72.3733" cy="58.6836" rx="3.45948" ry="3.70919" transform="rotate(-90 72.3733 58.6836)" fill="#FFCE05"/>
<ellipse id="Ellipse 44_3" cx="21.051" cy="58.6836" rx="3.45948" ry="3.70919" transform="rotate(-90 21.051 58.6836)" fill="#FFCE05"/>
<ellipse id="Ellipse 59_3" cx="55.2639" cy="58.6836" rx="3.45948" ry="3.70919" transform="rotate(-90 55.2639 58.6836)" fill="#FFCE05"/>
<ellipse id="Ellipse 75_3" cx="89.4807" cy="58.6836" rx="3.45948" ry="3.70919" transform="rotate(-90 89.4807 58.6836)" fill="#FFCE05"/>
</g>
<g id="Group 98">
<ellipse id="Ellipse 36_4" cx="3.94161" cy="40.4333" rx="3.45948" ry="3.70919" transform="rotate(-90 3.94161 40.4333)" fill="#FFCE05"/>
<ellipse id="Ellipse 198_4" cx="106.584" cy="40.4333" rx="3.45948" ry="3.70919" transform="rotate(-90 106.584 40.4333)" fill="#FFCE05"/>
<ellipse id="Ellipse 58_4" cx="38.1545" cy="40.4333" rx="3.45948" ry="3.70919" transform="rotate(-90 38.1545 40.4333)" fill="#FFCE05"/>
<ellipse id="Ellipse 74_4" cx="72.3733" cy="40.4333" rx="3.45948" ry="3.70919" transform="rotate(-90 72.3733 40.4333)" fill="#FFCE05"/>
<ellipse id="Ellipse 44_4" cx="21.051" cy="40.4333" rx="3.45948" ry="3.70919" transform="rotate(-90 21.051 40.4333)" fill="#FFCE05"/>
<ellipse id="Ellipse 59_4" cx="55.2639" cy="40.4333" rx="3.45948" ry="3.70919" transform="rotate(-90 55.2639 40.4333)" fill="#FFCE05"/>
<ellipse id="Ellipse 75_4" cx="89.4807" cy="40.4333" rx="3.45948" ry="3.70919" transform="rotate(-90 89.4807 40.4333)" fill="#FFCE05"/>
</g>
<g id="Group 99">
<ellipse id="Ellipse 36_5" cx="3.94161" cy="22.1824" rx="3.45948" ry="3.70919" transform="rotate(-90 3.94161 22.1824)" fill="#FFCE05"/>
<ellipse id="Ellipse 198_5" cx="106.584" cy="22.1824" rx="3.45948" ry="3.70919" transform="rotate(-90 106.584 22.1824)" fill="#FFCE05"/>
<ellipse id="Ellipse 58_5" cx="38.1545" cy="22.1824" rx="3.45948" ry="3.70919" transform="rotate(-90 38.1545 22.1824)" fill="#FFCE05"/>
<ellipse id="Ellipse 74_5" cx="72.3733" cy="22.1824" rx="3.45948" ry="3.70919" transform="rotate(-90 72.3733 22.1824)" fill="#FFCE05"/>
<ellipse id="Ellipse 44_5" cx="21.051" cy="22.1824" rx="3.45948" ry="3.70919" transform="rotate(-90 21.051 22.1824)" fill="#FFCE05"/>
<ellipse id="Ellipse 59_5" cx="55.2639" cy="22.1824" rx="3.45948" ry="3.70919" transform="rotate(-90 55.2639 22.1824)" fill="#FFCE05"/>
<ellipse id="Ellipse 75_5" cx="89.4807" cy="22.1824" rx="3.45948" ry="3.70919" transform="rotate(-90 89.4807 22.1824)" fill="#FFCE05"/>
</g>
<g id="Group 100">
<ellipse id="Ellipse 36_6" cx="3.94161" cy="3.93359" rx="3.45948" ry="3.70919" transform="rotate(-90 3.94161 3.93359)" fill="#FFCE05"/>
<ellipse id="Ellipse 198_6" cx="106.584" cy="3.93335" rx="3.45948" ry="3.70919" transform="rotate(-90 106.584 3.93335)" fill="#FFCE05"/>
<ellipse id="Ellipse 58_6" cx="38.1545" cy="3.93335" rx="3.45948" ry="3.70919" transform="rotate(-90 38.1545 3.93335)" fill="#FFCE05"/>
<ellipse id="Ellipse 74_6" cx="72.3733" cy="3.93335" rx="3.45948" ry="3.70919" transform="rotate(-90 72.3733 3.93335)" fill="#FFCE05"/>
<ellipse id="Ellipse 44_6" cx="21.051" cy="3.93335" rx="3.45948" ry="3.70919" transform="rotate(-90 21.051 3.93335)" fill="#FFCE05"/>
<ellipse id="Ellipse 59_6" cx="55.2639" cy="3.93335" rx="3.45948" ry="3.70919" transform="rotate(-90 55.2639 3.93335)" fill="#FFCE05"/>
<ellipse id="Ellipse 75_6" cx="89.4807" cy="3.93335" rx="3.45948" ry="3.70919" transform="rotate(-90 89.4807 3.93335)" fill="#FFCE05"/>
</g>
</g>
</svg>
