<svg width="53" height="42" viewBox="0 0 53 42" fill="none" xmlns="http://www.w3.org/2000/svg">
<g id="Frame" clip-path="url(#clip0_677_534)">
<g id="Group">
<path id="Vector" d="M32.6129 6.60956V8.68701H35.1755V6.60956C36.1824 6.08744 36.8772 4.97177 36.8772 3.66924C36.8772 1.87207 35.543 0.410156 33.8917 0.410156C32.2454 0.410156 30.9062 1.86658 30.9062 3.66924C30.9113 4.97177 31.606 6.08744 32.6129 6.60956Z" fill="#1976D2"/>
<path id="Vector_2" d="M20.0974 8.69238V6.61493C21.1043 6.09281 21.799 4.97714 21.799 3.67461C21.799 1.87744 20.4649 0.415527 18.8136 0.415527C17.1623 0.415527 15.8281 1.87195 15.8281 3.67461C15.8281 4.97165 16.5229 6.08732 17.5298 6.61493V8.69238H20.0974Z" fill="#1976D2"/>
<path id="Vector_3" d="M38.0857 9.66516H15.1586C10.6024 9.66516 6.91211 13.6937 6.91211 18.6675V32.8799C6.91211 37.8537 10.6024 41.8822 15.1586 41.8822H38.0857C42.6419 41.8822 46.3322 37.8537 46.3322 32.8799V18.6675C46.3322 13.6992 42.6369 9.66516 38.0857 9.66516ZM32.0644 34.4298C31.4452 37.0898 29.2451 39.0573 26.6171 39.0573C23.9891 39.0573 21.789 37.0898 21.1698 34.4298C21.0389 33.8747 21.4215 33.3306 21.9451 33.3306H31.2841C31.8127 33.3306 32.1953 33.8747 32.0644 34.4298ZM43.6639 25.6088C43.6639 28.1974 41.7458 30.2913 39.3745 30.2913H13.8698C11.4985 30.2913 9.58039 28.1974 9.58039 25.6088V19.2281C9.58039 16.6395 11.5036 14.5455 13.8698 14.5455H39.3745C41.7458 14.5455 43.6639 16.6395 43.6639 19.2281V25.6088Z" fill="#1976D2"/>
<path id="Vector_4" d="M17.44 20.1898C16.1763 20.1898 15.1543 21.3055 15.1543 22.685C15.1543 24.0644 16.1763 25.1801 17.44 25.1801C18.7036 25.1801 19.7256 24.0644 19.7256 22.685C19.7256 21.311 18.7036 20.1898 17.44 20.1898Z" fill="#1976D2"/>
<path id="Vector_5" d="M35.7993 20.1898C34.5357 20.1898 33.5137 21.3055 33.5137 22.685C33.5137 24.0644 34.5357 25.1801 35.7993 25.1801C37.063 25.1801 38.085 24.0644 38.085 22.685C38.085 21.311 37.063 20.1898 35.7993 20.1898Z" fill="#1976D2"/>
<path id="Vector_6" d="M52.4432 24.9438C52.4432 22.0749 50.6409 19.6732 48.2042 18.9972C47.6957 18.8543 47.1973 19.272 47.1973 19.8436V30.0385C47.1973 30.6101 47.6957 31.0278 48.2042 30.8849C50.6409 30.2199 52.4432 27.8127 52.4432 24.9438Z" fill="#1976D2"/>
<path id="Vector_7" d="M5.12967 19.0027C2.69297 19.6732 0.890625 22.0804 0.890625 24.9438C0.890625 27.8127 2.69297 30.2144 5.12967 30.8904C5.63815 31.0333 6.13657 30.6156 6.13657 30.044V19.8491C6.13657 19.2775 5.63815 18.8598 5.12967 19.0027Z" fill="#1976D2"/>
</g>
</g>
<defs>
<clipPath id="clip0_677_534">
<rect width="51.5532" height="41.4667" fill="white" transform="translate(0.890625 0.415527)"/>
</clipPath>
</defs>
</svg>
