<svg width="44" height="42" viewBox="0 0 44 42" fill="none" xmlns="http://www.w3.org/2000/svg">
<g id="Group">
<path id="Vector" d="M14.1499 33.6515C11.8108 33.2137 9.47178 32.8245 7.13271 32.3866C6.41667 32.2407 6.36893 33.4083 7.03724 33.5056C9.37631 33.9434 11.7154 34.3326 14.0544 34.7705C14.7705 34.9164 14.8182 33.7488 14.1499 33.6515Z" fill="white"/>
<path id="Vector_2" d="M15.3426 30.0998C13.3377 29.8565 11.3328 29.516 9.3756 28.9808C8.70729 28.7862 8.3254 29.8565 9.04144 30.0511C11.0941 30.5863 13.1945 30.9755 15.2949 31.2187C15.9632 31.316 16.0109 30.1971 15.3426 30.0998Z" fill="white"/>
<path id="Vector_3" d="M40.6922 11.1745C40.4058 10.8826 40.1194 10.6394 39.7375 10.4934C35.8709 7.28253 31.7178 4.55812 27.5648 1.83372C26.4668 1.05531 25.3689 0.0823092 23.9846 0.17961C22.5047 0.32556 21.9319 1.39586 21.7887 2.80672C21.741 3.53647 22.8389 3.58512 22.8866 2.90402C23.1253 0.082309 25.6076 1.83372 26.801 2.61212C28.0421 3.43917 29.2833 4.26622 30.5722 5.09328C33.0067 6.69873 35.3458 8.35284 37.6371 10.1529C35.298 10.3475 32.4816 11.7583 31.0495 12.3908C29.0446 13.3152 27.0397 14.3855 25.2257 15.699C24.3665 16.3315 22.6957 17.3045 22.457 18.5207C22.4093 18.8613 22.457 19.2018 22.6002 19.591C20.643 19.8343 19.02 20.564 17.6834 22.1208C17.5402 21.9262 17.397 21.7803 17.2538 21.6343C16.49 20.9532 15.1534 21.3424 14.2941 21.5857C12.2892 22.1208 10.332 22.9965 8.47032 23.9209C6.27446 24.9912 4.07859 26.3047 2.21688 27.9102C1.88273 28.2021 1.50084 28.5427 1.21443 28.9319C1.16669 25.9642 1.26216 22.9479 1.45311 19.9316C1.54858 18.4721 1.64405 17.0612 1.73952 15.6017C1.835 14.1422 1.73952 10.7367 4.26954 12.3422C4.89011 12.7314 5.51068 11.7583 4.89011 11.3691C3.79218 10.688 2.55104 10.4448 1.59631 11.5637C0.593855 12.6341 0.737064 14.1909 0.641591 15.5531C0.307438 20.6127 -0.074451 25.6723 0.16423 30.7806C0.0687575 31.0725 0.0210213 31.4617 0.116494 31.8022C0.116494 31.8995 0.116494 31.9482 0.16423 32.0455C2.74198 37.2997 6.89503 43.7702 13.4826 41.3377C15.583 40.5592 17.7789 39.2943 19.3542 37.6402C20.5953 36.3267 20.8817 34.5266 20.7862 32.7752C20.643 30.44 20.0225 28.1535 19.211 26.0128V25.9642C20.6908 24.3101 22.648 23.629 24.7483 23.4344C25.7031 24.8939 26.7533 26.3534 27.9467 27.5697C29.2355 28.9319 30.954 30.3427 32.9112 30.44C34.7729 30.4887 36.8256 29.5643 38.4486 28.7859C40.74 27.6183 43.0313 25.9155 43.5564 23.2398C44.4156 19.1532 42.5539 14.9693 40.7877 11.3691C40.74 11.2718 40.6922 11.2232 40.6922 11.1745ZM17.4925 24.6993C18.2085 26.4507 18.8291 28.2508 19.2587 30.0995C19.6406 31.8509 20.0225 33.9915 19.3064 35.6942C18.6859 37.251 16.8719 38.2727 15.5353 39.0511C13.2439 40.3646 10.4275 41.4836 7.94522 40.0727C4.69916 38.3213 2.78972 34.8185 1.21443 31.6076C1.16669 31.4617 1.16669 31.3157 1.21443 31.1698C1.26216 31.0725 1.3099 30.9752 1.26216 30.8779C1.26216 30.8292 1.26216 30.8292 1.26216 30.7806C1.88273 28.5913 6.22672 26.402 7.61107 25.6236C9.2341 24.7479 10.9049 23.9209 12.6234 23.2884C13.4826 22.9479 15.3443 22.0722 16.299 22.4127C16.6809 22.5587 17.2538 24.0668 17.4925 24.6993ZM18.7813 24.6993C18.5904 24.1641 18.3994 23.629 18.1608 23.0938C18.2562 23.0452 18.304 22.9965 18.3517 22.9479C19.6406 21.4397 21.2159 20.8559 23.0776 20.6613C23.3163 21.0505 23.5549 21.3911 23.6982 21.683C23.7936 21.8776 23.9368 22.0722 24.0323 22.3154C22.0751 22.6073 20.2134 23.2884 18.7813 24.6993ZM38.6873 27.3264C37.112 28.2021 35.1548 29.1265 33.3409 29.2724C31.5746 29.3697 30.0948 28.1048 28.9014 26.9372C27.517 25.5263 26.3714 23.9209 25.3212 22.2668C24.8438 21.4397 23.5549 19.8829 23.5072 18.9099C23.5072 18.4234 24.7006 17.4991 25.2734 17.0612C26.7055 15.9909 28.2808 15.0666 29.9039 14.2395C31.7178 13.3152 33.6273 12.4395 35.5845 11.9043C36.4914 11.661 38.1145 11.1259 39.2124 11.5151C39.3079 11.5637 39.3556 11.6124 39.4511 11.6124C39.5943 11.7097 39.6898 11.807 39.833 11.9043C41.2173 14.7747 42.4107 17.5964 42.5539 20.8073C42.6971 23.9209 41.2651 25.8669 38.6873 27.3264Z" fill="white"/>
<path id="Vector_4" d="M36.9702 21.9755C34.6312 21.5377 32.2921 21.1485 29.953 20.7106C29.237 20.5647 29.1892 21.7323 29.8575 21.8296C32.1966 22.2674 34.5357 22.6566 36.8748 23.0945C37.5908 23.2404 37.6863 22.1215 36.9702 21.9755Z" fill="white"/>
<path id="Vector_5" d="M38.161 18.4723C36.1561 18.2291 34.1511 17.8885 32.194 17.3534C31.5257 17.1588 31.1438 18.2291 31.8598 18.4237C33.9125 18.9588 36.0128 19.348 38.1132 19.5913C38.7815 19.6399 38.877 18.521 38.161 18.4723Z" fill="white"/>
</g>
</svg>
