<svg width="19" height="25" viewBox="0 0 19 25" fill="none" xmlns="http://www.w3.org/2000/svg">
<path id="Vector" fill-rule="evenodd" clip-rule="evenodd" d="M1.07432 19.4055C1.26681 19.2934 1.49591 19.2623 1.7113 19.3191C1.92669 19.3758 2.11075 19.5157 2.22306 19.7081C3.1499 21.2973 4.56649 22.4987 6.31369 23.2787C6.41451 23.3237 6.50548 23.388 6.58142 23.4682C6.65735 23.5483 6.71676 23.6426 6.75626 23.7456C6.79575 23.8487 6.81455 23.9586 6.81159 24.0689C6.80863 24.1793 6.78397 24.288 6.73901 24.3888C6.69405 24.4896 6.62967 24.5806 6.54955 24.6565C6.46943 24.7324 6.37514 24.7918 6.27206 24.8313C6.16898 24.8708 6.05913 24.8896 5.94878 24.8867C5.83843 24.8837 5.72975 24.859 5.62893 24.8141C3.59818 23.9074 1.89581 22.483 0.771724 20.5553C0.716063 20.46 0.679737 20.3546 0.664821 20.2452C0.649904 20.1358 0.656691 20.0245 0.684791 19.9177C0.712892 19.8109 0.761756 19.7107 0.828593 19.6228C0.895429 19.535 0.978928 19.4611 1.07432 19.4055ZM17.3158 3.78597C16.1794 2.62491 14.5588 2.19791 12.9719 2.64844C12.7603 2.701 12.5365 2.66927 12.3479 2.55995C12.1592 2.45064 12.0204 2.27229 11.9608 2.06256C11.9012 1.85283 11.9254 1.62814 12.0283 1.43592C12.1312 1.2437 12.3048 1.099 12.5124 1.03236C14.6844 0.413721 16.9449 1.00434 18.5161 2.60922C18.6685 2.76911 18.7517 2.98253 18.748 3.20335C18.7442 3.42416 18.6537 3.63462 18.496 3.78923C18.3383 3.94384 18.1261 4.03017 17.9052 4.02956C17.6844 4.02895 17.4727 3.94145 17.3158 3.78597ZM8.66833 3.09785C8.4285 2.68655 7.72917 2.43662 7.01975 2.84345C6.31145 3.24691 6.18705 3.96081 6.42353 4.36427L9.25335 9.21924C9.36222 9.41166 9.39089 9.63923 9.33315 9.85264C9.27541 10.0661 9.13592 10.2481 8.94488 10.3594C8.75385 10.4707 8.52666 10.5023 8.31253 10.4472C8.09841 10.3922 7.91459 10.255 7.80089 10.0654L4.02854 3.59321C3.78871 3.1819 3.08938 2.93198 2.37884 3.33881C1.67166 3.74227 1.54726 4.45617 1.78262 4.85963L6.02903 12.141C6.08466 12.2363 6.12097 12.3417 6.13587 12.4511C6.15077 12.5605 6.14398 12.6718 6.11588 12.7786C6.08778 12.8853 6.03892 12.9855 5.9721 13.0734C5.90528 13.1613 5.82181 13.2352 5.72644 13.2908C5.63107 13.3465 5.52567 13.3828 5.41627 13.3977C5.30687 13.4126 5.19561 13.4058 5.08884 13.3777C4.98206 13.3496 4.88187 13.3007 4.79397 13.2339C4.70608 13.1671 4.63221 13.0836 4.57658 12.9882L2.68816 9.75158C2.44832 9.34027 1.74899 9.09035 1.03958 9.49717C0.33128 9.90063 0.20688 10.6134 0.443352 11.018L4.68865 18.2993C6.49189 21.3914 10.9423 22.3944 14.7146 20.2382C18.4859 18.083 19.8262 13.7783 18.0275 10.693L15.1965 5.83914C14.9567 5.42783 14.2574 5.17791 13.548 5.58361C12.8397 5.98819 12.7153 6.70097 12.9517 7.10555L14.8379 10.3411C14.894 10.437 14.9306 10.543 14.9455 10.6531C14.9604 10.7632 14.9533 10.8752 14.9246 10.9825C14.896 11.0899 14.8463 11.1905 14.7785 11.2785C14.7107 11.3666 14.6262 11.4403 14.5297 11.4954C12.8004 12.4817 12.2703 14.3925 13.0279 15.6903C13.0836 15.7857 13.1199 15.891 13.1348 16.0004C13.1497 16.1098 13.1429 16.2211 13.1148 16.3279C13.0867 16.4347 13.0378 16.5349 12.971 16.6227C12.9042 16.7106 12.8207 16.7845 12.7253 16.8401C12.63 16.8958 12.5246 16.9321 12.4152 16.947C12.3058 16.9619 12.1945 16.9551 12.0877 16.927C11.981 16.8989 11.8808 16.85 11.7929 16.7832C11.705 16.7164 11.6311 16.6329 11.5755 16.5376C10.5523 14.7836 10.9658 12.6711 12.2871 11.1783C12.657 10.7613 12.7825 10.1539 12.5023 9.67201L8.66945 3.09785H8.66833Z" fill="#0F0F0F"/>
</svg>
