<svg width="119" height="86" viewBox="0 0 119 86" fill="none" xmlns="http://www.w3.org/2000/svg">
<g id="Frame" clip-path="url(#clip0_686_895)">
<g id="Group">
<path id="Vector" d="M91.5566 55.116C106.713 55.116 119 42.7779 119 27.558C119 12.3381 106.713 0 91.5566 0C76.4001 0 64.1133 12.3381 64.1133 27.558C64.1133 42.7779 76.4001 55.116 91.5566 55.116Z" fill="#5CE1E6"/>
<path id="Vector_2" d="M18.6899 86C29.012 86 37.3797 77.5973 37.3797 67.2321C37.3797 56.8668 29.012 48.4641 18.6899 48.4641C8.36774 48.4641 0 56.8668 0 67.2321C0 77.5973 8.36774 86 18.6899 86Z" fill="#A37BCB"/>
<g id="Group_2">
<g id="Group_3">
<path id="Vector_3" d="M74.8787 22.3315V42.0497H69.3191V22.3315C69.3191 14.8481 63.6411 8.67127 56.662 8.67127C49.6829 8.67127 44.005 14.7293 44.005 22.3315V42.0497H38.4453V22.3315C38.4453 11.5221 46.6073 2.85083 56.662 2.85083C66.7167 2.85083 74.8787 11.6409 74.8787 22.3315Z" fill="#C7C7C7"/>
<path id="Vector_4" d="M38.4453 27.5581L44.005 27.7957V42.1686H38.4453V27.5581Z" fill="#A6A6A6"/>
<path id="Vector_5" d="M74.878 28.9834V42.1685H69.3184V28.7458L74.878 28.9834Z" fill="#A6A6A6"/>
</g>
<path id="Vector_6" d="M81.9759 30.884H31.3477V77.0912H81.9759V30.884Z" fill="#FFCE05"/>
<path id="Vector_7" opacity="0.1" d="M81.9762 30.884H56.6621V77.0912H81.9762V30.884Z" fill="black" fill-opacity="0.39"/>
<path id="Vector_8" d="M58.7905 55.7099L60.9197 65.8066H51.9297L54.0589 55.7099C52.7577 54.8784 51.9297 53.453 51.9297 51.9088C51.9297 49.4144 53.9406 47.395 56.4247 47.395C58.9088 47.395 60.9197 49.4144 60.9197 51.9088C60.9197 53.453 60.0917 54.8784 58.7905 55.7099Z" fill="#263238"/>
</g>
</g>
</g>
<defs>
<clipPath id="clip0_686_895">
<rect width="119" height="86" fill="white"/>
</clipPath>
</defs>
</svg>
