<svg width="86" height="86" viewBox="0 0 86 86" fill="none" xmlns="http://www.w3.org/2000/svg">
<g id="Frame" clip-path="url(#clip0_695_1043)">
<g id="Group">
<g id="Group_2">
<g id="Group_3">
<path id="Vector" d="M51.1192 22.5867V45.5144H44.5897V22.5867C44.5897 13.893 37.9743 6.81863 29.7266 6.81863C21.5648 6.81863 14.8635 13.893 14.8635 22.5867V45.5144H8.33398V22.5867C8.33398 10.1427 17.9564 0 29.7266 0C41.5827 0 51.1192 10.1427 51.1192 22.5867Z" fill="#DBDBDB"/>
<path id="Vector_2" d="M8.33398 28.553L14.8635 28.8087V45.5143H8.33398V28.553Z" fill="#C7C7C7"/>
<path id="Vector_3" d="M51.1193 30.2577V45.5143H44.5898V30.002L51.1193 30.2577Z" fill="#C7C7C7"/>
</g>
<path id="Vector_4" d="M59.5385 37.0764H0V86.0853H59.5385V37.0764Z" fill="#FFCE05"/>
<path id="Vector_5" opacity="0.1" d="M29.7263 37.0764H0V86.0853H29.7263V37.0764Z" fill="black" fill-opacity="0.51"/>
<path id="Vector_6" d="M32.5623 61.1973L35.0538 72.9594H24.4863L26.9778 61.1973C25.5173 60.2597 24.4863 58.6403 24.4863 56.7652C24.4863 53.8672 26.8919 51.4807 29.813 51.4807C32.7341 51.4807 35.1397 53.782 35.1397 56.7652C35.0538 58.6403 34.0228 60.2597 32.5623 61.1973Z" fill="#263238"/>
</g>
<g id="Group_4">
<g id="Group_5">
<g id="Group_6">
<path id="Vector_7" d="M82.133 40.3151L79.4697 39.8889C81.1879 29.4053 74.3148 19.433 63.8333 17.217C55.156 15.3419 46.4786 19.433 42.1829 26.6778L39.7773 25.3993C44.6744 17.1318 54.4687 12.4439 64.4347 14.5748C76.2908 17.1318 84.109 28.4677 82.133 40.3151Z" fill="#5CE1E6"/>
<path id="Vector_8" d="M78.7821 40.4004L78.868 39.8038C80.5004 29.6611 73.885 19.9445 63.6612 17.8137C55.4135 16.0238 46.9939 19.6888 42.6982 26.9336L42.4405 27.445L39.0039 25.6551L39.3476 25.1437C44.5024 16.3647 54.6403 11.9326 64.6063 14.0634C76.8061 16.7057 84.7961 28.2973 82.8201 40.4856L82.7342 41.0823L78.7821 40.4004ZM64.0049 16.6204C74.5723 18.8365 81.6173 28.8087 80.1568 39.3776L81.6173 39.6333C83.1637 28.2973 75.6033 17.6432 64.2626 15.1715C54.9839 13.2111 45.6193 17.217 40.6363 25.1437L41.925 25.8256C46.6503 18.4955 55.4135 14.7453 64.0049 16.6204Z" fill="#5CE1E6"/>
</g>
<g id="Group_7">
<g id="Group_8">
<path id="Vector_9" d="M76.377 37.9285L77.5798 36.991L80.5008 40.9117L84.1951 37.7581L85.1402 38.9513L80.1572 43.1277L76.377 37.9285Z" fill="#5CE1E6"/>
<path id="Vector_10" d="M80.071 44.0653L75.5176 37.8433L77.7513 36.1387L80.6724 39.9742L84.3667 36.9058L85.9991 39.1218L80.071 44.0653ZM77.2359 38.099L80.3288 42.2754L84.2808 38.9514L84.109 38.6957L80.4147 41.764L77.4936 37.8433L77.2359 38.099Z" fill="#5CE1E6"/>
</g>
</g>
</g>
<g id="Group_9">
<g id="Group_10">
<path id="Vector_11" d="M36.8561 33.7522L39.5194 34.1784C37.8011 44.662 44.6743 54.6343 55.1558 56.8503C63.8331 58.7254 72.5104 54.6343 76.8061 47.3895L79.2117 48.668C74.4005 56.9355 64.5204 61.6234 54.6403 59.4925C42.6982 56.9356 34.966 45.5996 36.8561 33.7522Z" fill="#5CE1E6"/>
<path id="Vector_12" d="M54.4686 60.0039C42.2688 57.3617 34.2788 45.77 36.2548 33.5817L36.3407 32.9851L40.2068 33.5817L40.1209 34.1784C38.4886 44.4063 45.1039 54.0376 55.2418 56.2537C63.4896 58.0436 71.9091 54.3786 76.2048 47.1338L76.4626 46.6224L79.8991 48.4123L79.5555 48.9237C74.5725 57.7027 64.4346 62.22 54.4686 60.0039ZM37.3717 34.4341C35.8252 45.77 43.3857 56.4242 54.7263 58.8959C64.005 60.8563 73.3697 56.8503 78.3527 48.9237L77.064 48.2418C72.4246 55.6571 63.6614 59.3221 55.07 57.447C44.5025 55.1457 37.4576 45.2586 38.8322 34.6898L37.3717 34.4341Z" fill="#5CE1E6"/>
</g>
<g id="Group_11">
<g id="Group_12">
<path id="Vector_13" d="M42.6128 36.0534L41.41 37.0762L38.489 33.1555L34.7947 36.3091L33.8496 35.0306L38.8326 30.9395L42.6128 36.0534Z" fill="#5CE1E6"/>
<path id="Vector_14" d="M34.7085 37.1615L33.0762 34.9455L38.9183 30.002L43.4718 36.224L41.238 37.9286L38.4028 34.0931L34.7085 37.1615ZM34.7085 35.1159L34.8804 35.3716L38.5747 32.3032L41.4958 36.224L41.7535 36.0535L38.6606 31.7918L34.7085 35.1159Z" fill="#5CE1E6"/>
</g>
</g>
</g>
</g>
</g>
</g>
<defs>
<clipPath id="clip0_695_1043">
<rect width="86" height="86" fill="white"/>
</clipPath>
</defs>
</svg>
