<svg width="21" height="17" viewBox="0 0 21 17" fill="none" xmlns="http://www.w3.org/2000/svg">
<path d="M0.954545 1.19944L2.17636 0L18.1364 15.7911L16.9241 17L13.9841 14.0911C12.8864 14.45 11.7218 14.6389 10.5 14.6389C5.72727 14.6389 1.65136 11.7017 0 7.55556C0.658636 5.89333 1.70864 4.42944 3.045 3.26778L0.954545 1.19944ZM10.5 4.72222C11.2595 4.72222 11.9879 5.02073 12.5249 5.55209C13.0619 6.08344 13.3636 6.80411 13.3636 7.55556C13.3641 7.8772 13.3092 8.19658 13.2014 8.5L9.54545 4.88278C9.85212 4.77604 10.1749 4.72175 10.5 4.72222ZM10.5 0.472222C15.2727 0.472222 19.3486 3.40944 21 7.55556C20.221 9.51358 18.8971 11.2131 17.1818 12.4572L15.8264 11.1067C17.1464 10.2032 18.211 8.98077 18.9191 7.55556C18.1474 5.99716 16.9493 4.68423 15.461 3.76598C13.9727 2.84773 12.2539 2.361 10.5 2.36111C9.45955 2.36111 8.43818 2.53111 7.48364 2.83333L6.01364 1.38833C7.38818 0.802778 8.90591 0.472222 10.5 0.472222ZM2.08091 7.55556C2.8526 9.11395 4.05068 10.4269 5.53897 11.3451C7.02726 12.2634 8.74606 12.7501 10.5 12.75C11.1586 12.75 11.8077 12.6839 12.4091 12.5517L10.2327 10.3889C9.56852 10.3184 8.9487 10.0252 8.47634 9.5578C8.00398 9.09044 7.70756 8.47718 7.63636 7.82L4.39091 4.59944C3.44591 5.40222 2.65364 6.40333 2.08091 7.55556Z" fill="#FF8E00"/>
</svg>
