<svg width="21" height="15" viewBox="0 0 21 15" fill="none" xmlns="http://www.w3.org/2000/svg">
<path d="M10.5 4.5C11.2595 4.5 11.9879 4.81607 12.5249 5.37868C13.0619 5.94129 13.3636 6.70435 13.3636 7.5C13.3636 8.29565 13.0619 9.05871 12.5249 9.62132C11.9879 10.1839 11.2595 10.5 10.5 10.5C9.74052 10.5 9.01214 10.1839 8.4751 9.62132C7.93807 9.05871 7.63636 8.29565 7.63636 7.5C7.63636 6.70435 7.93807 5.94129 8.4751 5.37868C9.01214 4.81607 9.74052 4.5 10.5 4.5ZM10.5 0C15.2727 0 19.3486 3.11 21 7.5C19.3486 11.89 15.2727 15 10.5 15C5.72727 15 1.65136 11.89 0 7.5C1.65136 3.11 5.72727 0 10.5 0ZM2.08091 7.5C2.85242 9.15031 4.05043 10.5407 5.53873 11.5133C7.02703 12.4858 8.74592 13.0013 10.5 13.0013C12.2541 13.0013 13.973 12.4858 15.4613 11.5133C16.9496 10.5407 18.1476 9.15031 18.9191 7.5C18.1476 5.84969 16.9496 4.45925 15.4613 3.48675C13.973 2.51424 12.2541 1.99868 10.5 1.99868C8.74592 1.99868 7.02703 2.51424 5.53873 3.48675C4.05043 4.45925 2.85242 5.84969 2.08091 7.5Z" fill="#FF8E00"/>
</svg>
