<svg width="40" height="40" viewBox="0 0 40 40" fill="none" xmlns="http://www.w3.org/2000/svg">
<path d="M20 0C31.046 0 40 8.95399 40 20C40 31.046 31.046 40 20 40C16.3563 40.0056 12.7811 39.0108 9.66401 37.124L3.60002 38.908C3.25185 39.0104 2.88252 39.0172 2.53085 38.9275C2.17918 38.8378 1.85816 38.6551 1.60154 38.3985C1.34491 38.1418 1.16217 37.8208 1.07251 37.4691C0.982846 37.1175 0.989586 36.7481 1.09202 36.4L2.87602 30.336C0.989934 27.2186 -0.00482808 23.6435 1.76191e-05 20C1.76191e-05 8.95399 8.95401 0 20 0ZM13 17C12.2044 17 11.4413 17.3161 10.8787 17.8787C10.3161 18.4413 10 19.2043 10 20C10 20.7956 10.3161 21.5587 10.8787 22.1213C11.4413 22.6839 12.2044 23 13 23C13.7957 23 14.5587 22.6839 15.1213 22.1213C15.6839 21.5587 16 20.7956 16 20C16 19.2043 15.6839 18.4413 15.1213 17.8787C14.5587 17.3161 13.7957 17 13 17ZM27 17C26.2044 17 25.4413 17.3161 24.8787 17.8787C24.3161 18.4413 24 19.2043 24 20C24 20.7956 24.3161 21.5587 24.8787 22.1213C25.4413 22.6839 26.2044 23 27 23C27.7957 23 28.5587 22.6839 29.1213 22.1213C29.6839 21.5587 30 20.7956 30 20C30 19.2043 29.6839 18.4413 29.1213 17.8787C28.5587 17.3161 27.7957 17 27 17Z" fill="#5CE1E6"/>
</svg>
