<svg width="36" height="36" viewBox="0 0 36 36" fill="none" xmlns="http://www.w3.org/2000/svg">
<path d="M17.9975 16.2C18.4749 16.2 18.9327 16.3896 19.2703 16.7272C19.6078 17.0648 19.7975 17.5226 19.7975 18V29.8512L22.1249 27.5256C22.4629 27.1881 22.9211 26.9987 23.3987 26.999C23.8764 26.9993 24.3344 27.1894 24.6719 27.5274C25.0094 27.8654 25.1988 28.3236 25.1985 28.8013C25.1981 29.2789 25.0081 29.7369 24.6701 30.0744L19.5869 35.1486C19.1315 35.6022 18.6869 36 17.9975 36C17.3927 36 16.9787 35.6958 16.5791 35.316L11.3249 30.0744C10.9869 29.7369 10.7968 29.2789 10.7965 28.8013C10.7961 28.3236 10.9856 27.8654 11.3231 27.5274C11.6606 27.1894 12.1185 26.9993 12.5962 26.999C13.0739 26.9987 13.5321 27.1881 13.8701 27.5256L16.1975 29.8512V18C16.1975 17.5226 16.3871 17.0648 16.7247 16.7272C17.0622 16.3896 17.5201 16.2 17.9975 16.2ZM17.0975 4.08512e-08C22.1087 4.08512e-08 26.3855 3.15 28.0523 7.5816C30.2727 8.19211 32.2401 9.49606 33.6674 11.3033C35.0946 13.1105 35.9072 15.3264 35.9866 17.6279C36.066 19.9294 35.408 22.1961 34.1086 24.0973C32.8092 25.9986 30.9364 27.435 28.7633 28.197C28.6288 26.9815 28.0841 25.8482 27.2189 24.984C26.2989 24.0599 25.0746 23.5015 23.7737 23.4126L23.3975 23.4V18C23.3988 16.5944 22.852 15.2436 21.8733 14.2347C20.8945 13.2258 19.561 12.6384 18.1559 12.5971C16.7509 12.5559 15.3852 13.0641 14.3489 14.0138C13.3127 14.9636 12.6876 16.2799 12.6065 17.6832L12.5975 18V23.4C11.8875 23.3989 11.1844 23.5383 10.5285 23.8102C9.87266 24.082 9.27707 24.481 8.77607 24.984C7.80777 25.9516 7.24456 27.2518 7.20107 28.62C5.32713 28.2371 3.62383 27.2674 2.33804 25.8514C1.05226 24.4354 0.2508 22.6467 0.0498431 20.7447C-0.151114 18.8426 0.258871 16.9259 1.22037 15.2725C2.18187 13.6191 3.64493 12.3149 5.39747 11.5488C5.43723 8.47204 6.68744 5.5348 8.87732 3.37322C11.0672 1.21164 14.0205 -0.000256909 17.0975 4.08512e-08Z" fill="#FF79A9"/>
</svg>
