<svg width="17" height="22" viewBox="0 0 17 22" fill="none" xmlns="http://www.w3.org/2000/svg">
<path fill-rule="evenodd" clip-rule="evenodd" d="M0.660587 16.6088C0.832346 16.5088 1.03677 16.4811 1.22895 16.5317C1.42114 16.5823 1.58538 16.7072 1.68559 16.8788C2.51259 18.2968 3.77659 19.3688 5.33559 20.0648C5.42554 20.1049 5.50672 20.1624 5.57447 20.2339C5.64223 20.3053 5.69524 20.3895 5.73048 20.4815C5.76572 20.5734 5.78249 20.6714 5.77985 20.7699C5.77721 20.8684 5.75521 20.9653 5.71509 21.0553C5.67497 21.1453 5.61752 21.2264 5.54603 21.2942C5.47455 21.3619 5.39041 21.415 5.29843 21.4502C5.20646 21.4854 5.10844 21.5022 5.00998 21.4996C4.91152 21.4969 4.81454 21.4749 4.72459 21.4348C2.91259 20.6258 1.39359 19.3548 0.390587 17.6348C0.340922 17.5497 0.308509 17.4557 0.295199 17.358C0.28189 17.2604 0.287945 17.1611 0.313019 17.0659C0.338092 16.9706 0.381693 16.8812 0.44133 16.8028C0.500967 16.7243 0.575472 16.6584 0.660587 16.6088ZM15.1526 2.6718C14.1386 1.6358 12.6926 1.2548 11.2766 1.6568C11.0878 1.7037 10.8881 1.67539 10.7198 1.57784C10.5515 1.4803 10.4276 1.32117 10.3744 1.13403C10.3212 0.946896 10.3428 0.746408 10.4346 0.574894C10.5265 0.403379 10.6813 0.274263 10.8666 0.214802C12.8046 -0.337198 14.8216 0.189802 16.2236 1.6218C16.3595 1.76447 16.4338 1.95491 16.4305 2.15193C16.4271 2.34896 16.3464 2.53675 16.2056 2.67471C16.0649 2.81266 15.8756 2.88969 15.6785 2.88915C15.4815 2.88861 15.2925 2.81053 15.1526 2.6718ZM7.43659 2.0578C7.22259 1.6908 6.59859 1.4678 5.96559 1.8308C5.33359 2.1908 5.22259 2.8278 5.43359 3.1878L7.95859 7.5198C8.05573 7.6915 8.08131 7.89456 8.02979 8.08498C7.97827 8.27541 7.8538 8.43787 7.68335 8.53717C7.51289 8.63647 7.31018 8.66461 7.11911 8.61551C6.92805 8.5664 6.76403 8.44399 6.66259 8.2748L3.29659 2.4998C3.08259 2.1328 2.45859 1.9098 1.82459 2.2728C1.19359 2.6328 1.08259 3.2698 1.29259 3.6298L5.08159 10.1268C5.13123 10.2119 5.16362 10.3059 5.17692 10.4036C5.19021 10.5012 5.18415 10.6004 5.15908 10.6957C5.13401 10.791 5.09042 10.8804 5.03079 10.9588C4.97117 11.0372 4.89668 11.1032 4.81159 11.1528C4.72649 11.2024 4.63245 11.2348 4.53483 11.2481C4.43722 11.2614 4.33794 11.2554 4.24267 11.2303C4.1474 11.2052 4.05799 11.1616 3.97957 11.102C3.90114 11.0424 3.83523 10.9679 3.78559 10.8828L2.10059 7.9948C1.88659 7.6278 1.26259 7.4048 0.629587 7.7678C-0.00241315 8.1278 -0.113413 8.7638 0.0975871 9.1248L3.88559 15.6218C5.49459 18.3808 9.46559 19.2758 12.8316 17.3518C16.1966 15.4288 17.3926 11.5878 15.7876 8.8348L13.2616 4.5038C13.0476 4.1368 12.4236 3.9138 11.7906 4.2758C11.1586 4.6368 11.0476 5.2728 11.2586 5.6338L12.9416 8.5208C12.9917 8.60636 13.0243 8.701 13.0376 8.79924C13.0509 8.89748 13.0445 8.99739 13.019 9.09317C12.9934 9.18895 12.9491 9.27872 12.8886 9.35727C12.8281 9.43582 12.7527 9.5016 12.6666 9.5508C11.1236 10.4308 10.6506 12.1358 11.3266 13.2938C11.3762 13.3789 11.4086 13.4729 11.4219 13.5706C11.4352 13.6682 11.4292 13.7674 11.4041 13.8627C11.379 13.958 11.3354 14.0474 11.2758 14.1258C11.2162 14.2042 11.1417 14.2702 11.0566 14.3198C10.9715 14.3694 10.8774 14.4018 10.7798 14.4151C10.6822 14.4284 10.5829 14.4224 10.4877 14.3973C10.3924 14.3722 10.303 14.3286 10.2246 14.269C10.1461 14.2094 10.0802 14.1349 10.0306 14.0498C9.11759 12.4848 9.48659 10.5998 10.6656 9.2678C10.9956 8.8958 11.1076 8.3538 10.8576 7.9238L7.43759 2.0578H7.43659Z" fill="#0F0F0F"/>
</svg>
